# xmcd
#
# Track frame offsets: 
#        182
#        13965
#        24600
#        36787
#        50285
#        62180
#        75212
#        86567
#        99380
#        112385
#        124190
#        137175
#        149367
#        161395
#        174517
#        185492
#        195605
#        206002
#        217945
#        229257
#        242955
#        254847
#
# Disc length: 3558 seconds
#
# Revision: 0
# Processed by: cddbd v1.4PL0 Copyright (c) Steve Scherf et al.
# Submitted via: ExactAudioCopy v0.95a3
#
DISCID=420de416
DTITLE=Rober Johnson - All Time Blues Classics
DYEAR=1930
DGENRE=Blues
TTITLE0=Sweet Home Chicago
TTITLE1=Love In Vain
TTITLE2=Crossroad Blues
TTITLE3=I Believe I'll Dust My Broom
TTITLE4=I'm A Steady Rollin' Man
TTITLE5=Rambling On My Mind
TTITLE6=Walking Blues
TTITLE7=Come On In My Kitchen
TTITLE8=Kind Hearted Woman Blues
TTITLE9=If I Had Possession Over
TTITLE10=Preaching Blues
TTITLE11=Last Fair Deal Gone Down
TTITLE12=When You Got A Good Friend
TTITLE13=32 -20 Blues
TTITLE14=From Four Til Late
TTITLE15=Track1Little Queen Of Spades7
TTITLE16=Stop Breaking Down Blues
TTITLE17=Me And The Devil Blues
TTITLE18=Stones In My Passway
TTITLE19=Terraplane Blues
TTITLE20=Hellhound On My Trail
TTITLE21=Phonograph Blues
EXTD=
EXTT0=
EXTT1=
EXTT2=
EXTT3=
EXTT4=
EXTT5=
EXTT6=
EXTT7=
EXTT8=
EXTT9=
EXTT10=
EXTT11=
EXTT12=
EXTT13=
EXTT14=
EXTT15=
EXTT16=
EXTT17=
EXTT18=
EXTT19=
EXTT20=
EXTT21=
PLAYORDER=
